<svg xmlns="http://www.w3.org/2000/svg" width="100" height="100"><path id="path" d="M98.12 45.547L54.45 1.885a6.445 6.445 0 0 0-9.109 0l-9.066 9.068 11.51 11.508c2.673-.904 5.738-.297 7.868 1.833 2.142 2.143 2.743 5.235 1.817 7.916l11.083 11.084c2.683-.924 5.775-.326 7.917 1.817a7.664 7.663 0 0 1-10.84 10.836c-2.25-2.253-2.808-5.56-1.667-8.333L53.63 37.275v27.203a7.75 7.75 0 0 1 2.026 1.449 7.67 7.67 0 0 1 0 10.839 7.664 7.663 0 0 1-10.836 0 7.67 7.67 0 0 1 0-10.839c.74-.74 1.606-1.305 2.5-1.672V36.798c-.914-.373-1.77-.928-2.5-1.673a7.66 7.66 0 0 1-1.648-8.377L31.84 15.4 1.884 45.345a6.445 6.445 0 0 0 0 9.108l43.663 43.663a6.445 6.445 0 0 0 9.109 0l43.457-43.452a6.44 6.44 0 0 0 0-9.108"/></svg>