<svg xmlns="http://www.w3.org/2000/svg" width="378" height="378" viewBox="0 0 100 100"><path d="M0 10L90 0l10 90-90 10z"/><path d="M19.064 44.885q-4.445 0-6.985-3.175-2.505-3.2-2.505-9.384 0-4.022 1.4-6.844 1.4-2.822 3.74-4.233 2.328-1.446 5.045-1.446 2.293 0 3.845.635 1.552.635 3.07 2.046L24.85 24.4q-1.13-1.023-2.364-1.517-1.2-.494-2.716-.494-2.963 0-4.94 2.364-1.976 2.364-1.976 7.585 0 5.186 1.588 7.585 1.623 2.4 4.868 2.4 2.575 0 4.62-1.164v-7.373h-4.76l-.353-2.575H27v11.57q-1.834 1.023-3.704 1.588-1.834.53-4.233.53zm26.163-19.368q1.13 0 2.6.388l-.423 6.315h-2.4v-3.986h-.176q-4.304 0-6.103 6.138v7.832H42.5v2.293h-9.666v-2.293h2.928V28.2h-2.928v-2.293h5.15l.564 4.4q1.13-2.4 2.68-3.598 1.588-1.2 3.986-1.2zm17.343 18.98h-3.422L52.4 25.905h3.175l5.362 15.9 5.292-15.9h3.104zm21.364.106q-1.094 3.2-3 5.115-1.905 1.905-5.327 2.258l-.423-2.364q1.87-.318 2.963-.988 1.13-.635 1.764-1.623.635-.953 1.164-2.505h-.988L73.63 25.904h3.14L82.1 42.24l5.256-16.334h3.07zM27.037 65.805q0 3.67-2.646 5.292-2.6 1.623-6.456 1.623h-6.562V48.412h5.997q3.704 0 6.138 1.446 2.47 1.4 2.47 4.692 0 2.187-1.305 3.528-1.305 1.305-3.246 1.764 5.6.953 5.6 5.962zM22.84 54.727q0-2-1.235-2.893-1.235-.917-3.528-.917h-3.634v7.832h3.916q4.48 0 4.48-4.022zm.953 11.183q0-2.575-1.4-3.598-1.376-1.023-3.8-1.023h-4.128v8.9h4.022q2.223 0 3.775-.917 1.552-.917 1.552-3.35zm17.835 6.915q-1.094 3.2-3 5.115-1.905 1.905-5.327 2.258l-.423-2.364q1.87-.318 2.963-.988 1.13-.635 1.764-1.623.635-.953 1.164-2.505h-.988l-6.456-18.592h3.14l5.327 16.334 5.256-16.334h3.07zm26.974-1.06q-.953.635-2.328.988-1.34.353-2.68.353-2.928 0-4.586-1.517-1.658-1.552-1.658-4.057V56.456h-4.27v-2.328h4.27V49.93l2.963-.353v4.55h6.456l-.388 2.328h-6.068v11.042q0 1.588.847 2.364.847.776 2.716.776 1.905 0 3.563-.882zm8.735-7.302q.106 3.07 1.588 4.62 1.517 1.552 3.8 1.552 1.376 0 2.505-.388 1.164-.423 2.47-1.27l1.376 1.976q-1.305 1.023-3 1.588-1.658.564-3.35.564-4.022 0-6.28-2.6-2.223-2.646-2.223-7.056 0-2.787.988-4.974.988-2.223 2.822-3.457 1.834-1.27 4.27-1.27 3.528 0 5.54 2.47 2.046 2.434 2.046 6.668 0 .8-.07 1.588zm5-8.3q-2.152 0-3.493 1.552-1.34 1.517-1.517 4.48h9.666q-.035-2.928-1.27-4.48-1.235-1.552-3.387-1.552z" fill="#fff"/></svg>