<svg xmlns="http://www.w3.org/2000/svg" width="100" height="100"><path id="path" d="M50 0C22.38 0 0 22.38 0 50s22.38 50 50 50 50-22.38 50-50S77.62 0 50 0zm12.195 20c4.56 0 9.123 1.737 12.596 5.21 6.946 6.945 6.946 18.245 0 25.19l-4.35 4.35c-1.153 1.153-3.138.385-3.197-1.244a21.59 21.59 0 0 0-1.137-6.178c-.233-.682-.066-1.436.443-1.945l1.535-1.535c3.284-3.284 3.387-8.63.135-11.947a8.45 8.45 0 0 0-11.992-.061l-7.875 7.875c-3.304 3.304-3.3 8.642 0 11.932.434.433.872.77 1.213 1.004a1.879 1.879 0 0 1 .814 1.479c.046 1.238-.393 2.514-1.37 3.492l-2.467 2.467c-.647.647-1.662.727-2.412.203a17.866 17.866 0 0 1-2.406-2.014c-7.002-7.01-6.904-18.247-.04-25.148.013-.014.027-.03.04-.043L49.6 25.21C53.072 21.736 57.634 20 62.195 20zm-7.57 19.373a1.9 1.9 0 0 1 1.244.338 17.869 17.869 0 0 1 2.406 2.014c7.002 7.01 6.904 18.247.04 25.148a1.4 1.4 0 0 1-.041.043L50.4 74.79c-6.946 6.946-18.247 6.945-25.19 0s-6.946-18.247 0-25.19l4.35-4.348c1.153-1.153 3.138-.387 3.197 1.242.076 2.077.45 4.165 1.137 6.18.233.682.066 1.436-.443 1.945l-1.535 1.535c-3.284 3.284-3.387 8.63-.135 11.947a8.45 8.45 0 0 0 11.992.061l7.875-7.875c3.304-3.304 3.3-8.642 0-11.932-.434-.433-.872-.77-1.213-1.004a1.879 1.879 0 0 1-.814-1.479c-.046-1.238.393-2.514 1.37-3.492l2.467-2.467c.323-.323.74-.506 1.168-.54z"/></svg>