<svg version="1" xmlns="http://www.w3.org/2000/svg" width="682.667" height="682.667" viewBox="0 0 512.000000 512.000000"><path d="M228.1 25.6C103 39.6.5 51.2.3 51.4c-.5.4 50.5 459.7 51.1 460.3.4.5 459.7-50.5 460.3-51.1.3-.3-48.6-444.3-50.3-456.4-.6-3.8-.9-4.2-3.3-4.1-1.4.1-104.9 11.5-230 25.5zm-116 76.4c6.9 1.3 16.4 5.8 21.2 10.1l3.8 3.4-4.9 4.8-4.9 4.8-5.2-3.6c-14.3-9.6-32.3-8.4-43.6 3-8.8 8.8-12 19.8-11.9 42 .1 22 2.9 33 10.8 41.3 6 6.4 9.7 7.7 22.6 7.7 10 0 12.2-.3 16.8-2.4l5.2-2.3V173H98.2l-.6-2.8c-.2-1.5-.7-4.4-1.1-6.5l-.6-3.7H139v59l-5.7 2.9c-9.3 4.6-18.9 7.2-29.5 7.8-27.5 1.6-44.2-10.2-51.8-36.7-2.8-9.7-3.8-31.6-2-42.7 5.3-33.8 31.5-54.1 62.1-48.3zm126.7 29.1l6.4 1.1-.6 10.2c-.4 5.5-.9 12.9-1.2 16.3l-.6 6.3H230V144.7l-4.7.7c-9.8 1.3-18.7 9.8-23.8 22.4-2.4 5.9-2.5 7.1-2.5 27.2v21h19v12h-50v-12h15v-71h-15v-13h12.9c7.2 0 13.2.4 13.5.9.3.5 1.1 5.4 1.8 10.9l1.1 10 3-4.6c3.6-5.9 10.3-12.9 14.2-15 3.3-1.7 11.7-4 15.4-4.1 1.3-.1 5.3.4 8.9 1zm59.3 40.9c7.4 22 13.6 40 13.9 40 .3 0 6.5-18 13.8-40l13.4-40h7.9c4.3 0 7.9.3 7.9.7 0 .5-7.7 22.1-17.2 48L320.7 228h-18.2l-16.9-46.8c-9.3-25.7-17.1-47.3-17.4-48-.3-.9 1.7-1.2 8-1.2h8.5l13.4 40zm98.5-29.5c1.8 5.5 7.9 24.1 13.5 41.4l10.3 31.4 6.4-19.9c3.5-10.9 9.5-29.7 13.4-41.7l7-21.7h7.9c4.3 0 7.9.3 7.9.8 0 2.6-35.7 102.7-38.6 108.3-7 13.3-17.2 21.3-30.9 24.2-6.5 1.3-6.9 1-8-6-.7-5.1-.2-6.3 2.9-6.3 1.3 0 5.5-1.6 9.4-3.5 7.7-3.9 10.9-7.4 14.7-16l2.4-5.4-2.6-.3c-2.5-.3-3.3-2.1-19-47.3-9-25.8-16.3-47.3-16.3-47.7 0-.5 3.7-.8 8.2-.6l8.1.3 3.3 10zM111.1 250.7c16.2 6 22.6 14.9 21.7 30-.3 4.3-1.2 9.2-2.1 10.9-2.3 4.5-8.2 9.8-13.8 12.5l-4.9 2.3 5.2 1.6c9.7 3 16.5 9 19.9 17.5 1.9 4.8 1.6 18.2-.5 24.4-3.3 9.7-14 17.7-28.1 21-2.7.7-15.2 1.5-27.7 1.8l-22.8.6V247.8l23.8.4c20.8.4 24.4.7 29.3 2.5zM309 265.5V277h33.2l-.7 4.2c-1.3 8.4.1 7.8-17.1 7.8H309v30.2c0 27.3.2 30.7 1.9 34.4 2.5 5.4 6.7 7.4 15.8 7.4 6.1 0 12-1.2 17.4-3.4 1.1-.5 2.3.7 4.4 4.5 2.7 5 2.7 5.3.9 6.6-7 5.1-27.1 7.2-37.1 3.9-6.5-2.2-13.4-8.1-16.4-14.3-2.3-4.7-2.4-5.5-2.7-37.1l-.3-32.2h-22l.3-5.8.3-5.7 10.7-.3 10.7-.3.3-10.7.3-10.7 4-.6c2.2-.3 5.7-.7 7.8-.8l3.7-.1v11.5zm129.3 13.3c15.5 7.6 22.7 23.3 21.8 47.4l-.1 3.8h-64.2l.7 4.2c2 12.8 6.2 19.8 14.5 24.1 5.1 2.7 6.1 2.9 14.7 2.5 8.3-.3 10-.8 16.4-4.1 4-2 7.3-3.6 7.4-3.4 4.7 6.9 6.5 9.7 6.5 10.1 0 .9-8.7 5.7-14 7.7-12.1 4.6-27.5 4.2-38.4-1C388.4 363 380 347 380 325.3c0-11.6 1.3-17.9 5.6-26.9 7.5-15.8 20.2-23.7 37.5-23.1 7.4.3 9.6.8 15.2 3.5zm-252.9 24.9c4.8 14.8 10.9 33.3 13.5 41.3l4.8 14.5 9.7-30c5.4-16.5 11.4-35.1 13.4-41.3l3.6-11.2h15.8l-.6 2.5c-1.9 7.5-34.1 98.6-36.7 103.8-8 15.9-19 24.6-34.5 27.1l-4.2.7-.6-3.8c-.4-2.1-.9-5-1.2-6.4-.5-2.4-.2-2.7 3.3-3.3 5.9-1.1 13.5-4.9 17.2-8.7 1.9-1.8 4.7-6.1 6.3-9.4l2.8-6-2.3-.3c-2.5-.3-1.4 2.8-28.6-76l-7-20.2h16.6l8.7 26.7z"/><path d="M74 281.2v20.1l13.8-.6c15.4-.6 20.7-2.1 24.6-6.8 3.5-4.1 5.1-12.7 3.6-19-2.5-10.4-9.9-13.9-29.7-13.9H74v20.2zM74 336.5v22.7l15.8-.4c16.7-.4 21.1-1.5 26-6.1 4.2-3.9 5.5-7.7 5.4-15.4-.1-8.5-2.6-15-6.8-17.9-6.2-4.3-8.6-4.8-24.6-5.2l-15.8-.4v22.7zM413.5 289.1c-4.5 1.3-10.3 6.5-12.9 11.8-1.9 3.6-4.6 13.7-4.6 16.8 0 .2 11.1.3 24.6.3h24.7l-.6-5.3c-2-16.4-10.1-24.9-23.7-24.6-2.5 0-5.8.5-7.5 1z"/></svg>