<svg xmlns="http://www.w3.org/2000/svg" width="100" height="100"><path id="logo" d="M33.448 78.507c0 .403-.464.726-1.048.726-.665.06-1.13-.262-1.13-.726 0-.403.464-.726 1.048-.726.605-.06 1.13.262 1.13.726zm-6.27-.907c-.14.403.262.867.867.988.524.202 1.13 0 1.25-.403s-.262-.867-.867-1.048c-.524-.14-1.11.06-1.25.464zm8.91-.343c-.585.14-.988.524-.927.988.06.403.585.665 1.2.524.585-.14.988-.524.927-.927-.06-.383-.605-.645-1.2-.585zM49.355 0C21.39 0 0 21.23 0 49.193c0 22.36 14.073 41.49 34.173 48.225 2.58.464 3.488-1.13 3.488-2.44L37.6 82.6s-14.113 3.024-17.077-6.008c0 0-2.298-5.867-5.605-7.38 0 0-4.617-3.165.323-3.105 0 0 5.02.403 7.782 5.202 4.415 7.782 11.815 5.544 14.698 4.214.464-3.226 1.774-5.464 3.226-6.794-11.27-1.25-22.64-2.883-22.64-22.278 0-5.544 1.532-8.326 4.758-11.875-.524-1.3-2.238-6.714.524-13.69 4.214-1.3 13.91 5.443 13.91 5.443a47.37 47.37 0 0 1 12.661-1.714 47.37 47.37 0 0 1 12.661 1.714s9.698-6.774 13.91-5.443c2.762 6.996 1.048 12.38.524 13.69 3.226 3.568 5.202 6.35 5.202 11.875 0 19.455-11.875 21.008-23.145 22.278 1.855 1.593 3.427 4.617 3.427 9.355l-.06 16.855c0 1.3.927 2.903 3.488 2.44C86.33 90.684 100 71.55 100 49.193 100 21.23 77.32 0 49.355 0zM19.597 69.535c-.262.202-.202.665.14 1.048.323.323.786.464 1.048.202.262-.202.202-.665-.14-1.048-.323-.323-.786-.464-1.048-.202zm-2.177-1.633c-.14.262.06.585.464.786.323.202.726.14.867-.14.14-.262-.06-.585-.464-.786-.403-.12-.726-.06-.867.14zm6.532 7.177c-.323.262-.202.867.262 1.25.464.464 1.048.524 1.3.202.262-.262.14-.867-.262-1.25-.444-.464-1.048-.524-1.3-.202zm-2.298-2.964c-.323.202-.323.726 0 1.19s.867.665 1.13.464c.323-.262.323-.786 0-1.25-.282-.464-.806-.665-1.13-.403z"/></svg>