<svg xmlns="http://www.w3.org/2000/svg" width="100" height="100"><path id="logo" d="M49.355 0C21.4 0 0 21.23 0 49.193c0 22.36 14.073 41.5 34.173 48.225 2.58.464 3.488-1.13 3.488-2.44L37.6 82.6s-14.113 3.024-17.077-6.008c0 0-2.298-5.867-5.605-7.38 0 0-4.617-3.165.323-3.105 0 0 5.02.403 7.782 5.202 4.415 7.782 11.815 5.544 14.698 4.214.464-3.226 1.774-5.464 3.226-6.794-11.27-1.25-22.64-2.883-22.64-22.278 0-5.544 1.532-8.326 4.758-11.875-.524-1.3-2.238-6.714.524-13.7 4.214-1.3 13.9 5.443 13.9 5.443a47.37 47.37 0 0 1 12.661-1.714 47.37 47.37 0 0 1 12.661 1.714s9.698-6.774 13.9-5.443c2.762 6.996 1.048 12.38.524 13.7 3.226 3.568 5.202 6.35 5.202 11.875 0 19.455-11.875 21.008-23.145 22.278 1.855 1.593 3.427 4.617 3.427 9.355l-.06 16.855c0 1.3.927 2.903 3.488 2.44C86.33 90.684 100 71.55 100 49.193 100 21.23 77.32 0 49.355 0z"/></svg>