<svg xmlns="http://www.w3.org/2000/svg" width="100" height="100"><path id="logo" d="M92.857 0H7.12C3.192 0 0 3.237 0 7.2V92.8c0 3.973 3.192 7.2 7.12 7.2h85.737c3.93 0 7.143-3.237 7.143-7.2V7.2c0-3.973-3.214-7.2-7.143-7.2zM30.223 85.714h-14.82V37.99h14.844v47.723zm-7.41-54.24a8.6 8.6 0 0 1-8.594-8.594 8.6 8.6 0 0 1 8.594-8.594c4.732 0 8.594 3.862 8.594 8.594 0 4.754-3.84 8.594-8.594 8.594zm62.97 54.24H70.96V62.5c0-5.536-.112-12.656-7.7-12.656-7.723 0-8.906 6.027-8.906 12.254v23.616H39.53V37.99h14.22v6.518h.2c1.987-3.75 6.83-7.7 14.04-7.7 15 0 17.8 9.888 17.8 22.746z"/></svg>