<svg xmlns="http://www.w3.org/2000/svg" width="100" height="100"><path id="logo" d="M89.286 0h-78.57A10.72 10.72 0 0 0 0 10.714v78.57A10.72 10.72 0 0 0 10.714 100h78.57A10.72 10.72 0 0 0 100 89.286v-78.57A10.72 10.72 0 0 0 89.286 0zM78.37 35.446l.045 1.897c0 19.353-14.732 41.652-41.652 41.652-8.304 0-16.004-2.41-22.478-6.562 1.183.134 2.32.18 3.527.18a29.35 29.35 0 0 0 18.17-6.25c-6.43-.134-11.83-4.353-13.683-10.156 2.254.335 4.286.335 6.607-.268a14.64 14.64 0 0 1-11.719-14.375v-.18a14.63 14.63 0 0 0 6.607 1.853 14.609 14.609 0 0 1-6.518-12.188c0-2.723.714-5.223 1.987-7.388 7.2 8.884 18.036 14.688 30.18 15.313-2.076-9.933 5.357-17.99 14.286-17.99 4.22 0 8.013 1.763 10.692 4.62 3.304-.625 6.473-1.853 9.286-3.527a14.6 14.6 0 0 1-6.429 8.058c2.946-.312 5.804-1.138 8.438-2.277-1.987 2.924-4.487 5.513-7.344 7.59z"/></svg>