<svg xmlns="http://www.w3.org/2000/svg" width="100" height="100"><path id="logo" d="M89.286 0h-78.57A10.72 10.72 0 0 0 0 10.714v78.57A10.72 10.72 0 0 0 10.714 100h78.57A10.72 10.72 0 0 0 100 89.286v-78.57A10.72 10.72 0 0 0 89.286 0zM31.34 64.33H20.938c-1.228 0-1.942-1.183-1.34-2.3L30.603 42.68c.022 0 .022-.022 0-.045l-7.01-12.054c-.67-1.25.045-2.254 1.34-2.254h10.402c1.16 0 2.12.647 2.88 1.942l7.12 12.344L34.152 62.3c-.78 1.384-1.72 2.03-2.812 2.03zm49.04-47.8L57.433 56.92l14.62 26.563c.625 1.138.022 2.254-1.34 2.254H60.313c-1.228 0-2.165-.647-2.88-1.942L42.7 56.942 65.78 16.25c.737-1.295 1.652-1.942 2.8-1.942h10.47c1.272-.022 1.964 1.05 1.34 2.232z"/></svg>